<?xml version="1.0" encoding="utf-8"?>
<!-- Generator: Adobe Illustrator 25.2.1, SVG Export Plug-In . SVG Version: 6.00 Build 0)  -->
<svg version="1.1" id="Capa_1" xmlns="http://www.w3.org/2000/svg" xmlns:xlink="http://www.w3.org/1999/xlink" x="0px" y="0px"
	 viewBox="0 0 90 90" style="enable-background:new 0 0 90 90;" xml:space="preserve">
<style type="text/css">
	.st0{opacity:0.18;fill:#5E1988;}
	.st1{opacity:0.18;fill:#5E1988;stroke:#C4CEFE;stroke-linecap:round;stroke-linejoin:round;}
	.st2{fill:#FFFFFF;}
	.st3{fill:none;stroke:#5E1988;stroke-width:2;stroke-linecap:round;stroke-linejoin:round;}
	.st4{fill:#FFFFFF;stroke:#5E1988;stroke-linecap:round;}
	.st5{opacity:0.18;fill:#5E1988;stroke:#5E1988;stroke-linecap:round;}
	.st6{fill:none;stroke:#5E1988;stroke-linecap:round;}
</style>
<circle class="st0" cx="24.8" cy="6.6" r="3.1"/>
<circle class="st1" cx="84" cy="28.7" r="3"/>
<circle class="st0" cx="83.6" cy="67.8" r="1.8"/>
<circle class="st0" cx="12" cy="84.7" r="1.8"/>
<rect x="3" y="47.8" class="st0" width="6.1" height="1.8"/>
<rect x="5.2" y="45.7" class="st0" width="1.8" height="6.1"/>
<circle class="st2" cx="45.8" cy="64.9" r="19.8"/>
<circle class="st3" cx="45.8" cy="64.9" r="18.2"/>
<path class="st4" d="M37.5,22.5v21.4c5.5-2.1,11.5-2,17,0.1V22.5H37.5z"/>
<path class="st5" d="M20.5,22.5v23l6.5,6.2c2.7-3.5,6.3-6.2,10.5-7.8V22.5H20.5z"/>
<path class="st5" d="M54.5,22.5V44c4.1,1.6,7.7,4.3,10.3,7.9l6.7-6.4v-23L54.5,22.5z"/>
<path class="st3" d="M14,14h64c1.1,0,2,0.9,2,2v4c0,1.1-0.9,2-2,2H14c-1.1,0-2-0.9-2-2v-4C12,14.9,12.9,14,14,14z"/>
<path class="st6" d="M20.3,22.5v23l6.5,6.2c2.7-3.5,6.3-6.2,10.5-7.8V22.5H20.3z"/>
<path class="st6" d="M54.3,22.5V44c4.1,1.6,7.7,4.3,10.3,7.9l6.7-6.4v-23L54.3,22.5z"/>
</svg>
