<?xml version="1.0" encoding="utf-8"?>
<!-- Generator: Adobe Illustrator 25.2.1, SVG Export Plug-In . SVG Version: 6.00 Build 0)  -->
<svg version="1.1" id="Capa_1" xmlns="http://www.w3.org/2000/svg" xmlns:xlink="http://www.w3.org/1999/xlink" x="0px" y="0px"
	 viewBox="0 0 90 90" style="enable-background:new 0 0 90 90;" xml:space="preserve">
<style type="text/css">
	.st0{opacity:0.18;fill:#5E1988;}
	.st1{opacity:0.18;fill:#5E1988;stroke:#C4CEFE;stroke-linecap:round;stroke-linejoin:round;}
	.st2{fill:#FFFFFF;stroke:#5E1988;stroke-width:2;stroke-linecap:round;stroke-linejoin:round;}
</style>
<path class="st0" d="M81.8,22.2c-1.6,0-2.9-1.3-2.9-2.9s1.3-2.9,2.9-2.9c1.6,0,2.9,1.3,2.9,2.9c0,0,0,0,0,0
	C84.7,20.9,83.4,22.2,81.8,22.2"/>
<circle class="st1" cx="72.4" cy="73.3" r="2.9"/>
<path class="st0" d="M15,78.1c-1.1,0-1.9-0.9-1.9-1.9c0-1.1,0.9-1.9,1.9-1.9s1.9,0.9,1.9,1.9c0,0,0,0,0,0
	C16.9,77.3,16.1,78.1,15,78.1"/>
<path class="st0" d="M14,51.3c-1.1,0-1.9-0.9-1.9-1.9s0.9-1.9,1.9-1.9s1.9,0.9,1.9,1.9C15.9,50.5,15.1,51.3,14,51.3"/>
<rect x="6" y="13.2" class="st0" width="6" height="2"/>
<rect x="8" y="11.2" class="st0" width="2" height="6"/>
<polygon class="st0" points="74.3,34.9 68.3,26.1 66.3,15.7 47.2,34.9 "/>
<polygon class="st0" points="42.5,6.4 33.8,12.4 23.3,14.4 42.5,33.6 "/>
<polygon class="st0" points="14.2,37.7 20.1,46.5 22.1,56.9 41.3,37.7 "/>
<polygon class="st0" points="23.3,58.6 33.8,60.6 42.5,66.6 42.5,39.4 "/>
<polygon class="st0" points="22.1,15.7 20.1,26.1 14.2,34.9 41.3,34.9 "/>
<polygon class="st0" points="74.3,37.9 47.2,37.9 66.3,57.1 68.3,46.6 "/>
<polygon class="st0" points="45.5,66.6 54.3,60.6 64.7,58.6 45.5,39.4 "/>
<polygon class="st0" points="64.7,14.4 54.3,12.4 45.5,6.4 45.5,33.6 "/>
<polygon class="st0" points="53.8,62.8 44,69.5 34.2,62.8 30.6,62.8 30.6,85.6 34.2,85.6 44,78.9 53.8,85.6 57.5,85.6 57.5,62.8 "/>
<path class="st2" d="M61.8,36.5c0,9.7-7.9,17.6-17.6,17.6c-9.7,0-17.6-7.9-17.6-17.6s7.9-17.6,17.6-17.6c0,0,0,0,0,0
	C54,18.9,61.8,26.8,61.8,36.5C61.8,36.5,61.8,36.5,61.8,36.5"/>
</svg>
