<?xml version="1.0" encoding="utf-8"?>
<!-- Generator: Adobe Illustrator 25.2.1, SVG Export Plug-In . SVG Version: 6.00 Build 0)  -->
<svg version="1.1" id="Capa_1" xmlns="http://www.w3.org/2000/svg" xmlns:xlink="http://www.w3.org/1999/xlink" x="0px" y="0px"
	 viewBox="0 0 90 90" style="enable-background:new 0 0 90 90;" xml:space="preserve">
<style type="text/css">
	.st0{opacity:0.18;fill:#5E1988;stroke:#C4CEFE;stroke-linecap:round;stroke-linejoin:round;}
	.st1{opacity:0.18;fill:#5E1988;}
	.st2{fill:#E3E7FE;}
	.st3{opacity:0.18;fill:#5E1988;stroke:#5E1988;stroke-miterlimit:10;}
	.st4{fill:#FFFFFF;stroke:#5E1988;stroke-width:2;stroke-linecap:round;stroke-linejoin:round;}
	.st5{fill:#5E1988;stroke:#5E1988;stroke-linecap:round;stroke-linejoin:round;}
</style>
<circle class="st0" cx="82" cy="26.3" r="3"/>
<circle class="st1" cx="79.4" cy="68.4" r="2.9"/>
<circle class="st2" cx="15" cy="82.1" r="1.7"/>
<rect x="5" y="34.8" class="st1" width="6.9" height="2.3"/>
<rect x="7.3" y="32.5" class="st1" width="2.3" height="6.9"/>
<polygon class="st3" points="39.2,4.2 42.9,5.6 45.9,3.3 46,7.2 49.2,9.5 45.5,10.5 44.5,14.2 42.2,11 38.3,10.9 40.5,7.9 "/>
<polygon class="st1" points="29.4,10.3 31.4,11 33.1,9.8 33.1,11.9 34.8,13.1 32.8,13.7 32.3,15.7 31,13.9 28.9,13.9 30.1,12.3 "/>
<polygon class="st1" points="51.6,9.7 53.9,10.5 55.8,9.1 55.8,11.5 57.9,13 55.6,13.7 54.9,16 53.4,13.9 51,13.9 52.4,12 "/>
<path class="st4" d="M49.9,64.3c0-0.4-0.3-0.8-0.7-0.8c-0.1,0-0.2,0-0.3,0c-1.5,0.4-2.9,0.6-4.4,0.7c-1.5-0.1-3-0.3-4.5-0.7
	c-0.4-0.1-0.8,0.1-1,0.5c0,0.1,0,0.2,0,0.3v3c0,0.6,0.4,1,1,1h8.8c0.6,0,1-0.4,1-1L49.9,64.3z"/>
<path class="st4" d="M58.4,20.9H30.9c-1.1,0-2.1,0.9-2.1,2.1c0,0,0,0,0,0v17.1c-0.1,5,1.5,9.8,4.5,13.8c5,6.3,14.1,7.3,20.3,2.3
	c0.9-0.7,1.6-1.5,2.3-2.3c3-3.9,4.6-8.8,4.5-13.8V23C60.5,21.9,59.6,20.9,58.4,20.9C58.5,20.9,58.4,20.9,58.4,20.9z"/>
<path class="st4" d="M24.1,44.9c-2.7-1-4-3.5-4-7.6v-9.5h4v-3.9h-5.8c-1.1,0-2.1,0.9-2.1,2.1v11.4c0,6.9,3.2,11.2,9,12.1
	C24.8,47.9,24.4,46.4,24.1,44.9L24.1,44.9z"/>
<path class="st5" d="M28.5,72.9v2.2c0,0.2,0.9,0.4,2.1,0.4h27.8c1.2,0,2.1-0.2,2.1-0.4v-2.2c0-0.2-0.9-0.4-2.1-0.4H30.6
	C29.4,72.5,28.5,72.7,28.5,72.9z"/>
<path class="st5" d="M28.5,78.9v2.2c0,0.2,0.9,0.4,2.1,0.4h27.8c1.2,0,2.1-0.2,2.1-0.4v-2.2c0-0.2-0.9-0.4-2.1-0.4H30.6
	C29.4,78.5,28.5,78.7,28.5,78.9z"/>
<path class="st4" d="M71.6,23.9h-5.9v3.9h4v8.8c0,3.9-1.2,6.2-4,7.2c-0.2,1.5-0.6,2.9-1.1,4.3c5.8-0.9,9-5,9-11.6V25.8
	C73.7,24.7,72.8,23.8,71.6,23.9L71.6,23.9z"/>
</svg>
